<svg width="266" height="117" viewBox="0 0 266 117" fill="none" xmlns="http://www.w3.org/2000/svg">
<path d="M37.0312 68.6719H19.6406V57.7031H37.0312C39.7188 57.7031 41.9062 57.2656 43.5938 56.3906C45.2812 55.4844 46.5156 54.2344 47.2969 52.6406C48.0781 51.0469 48.4688 49.25 48.4688 47.25C48.4688 45.2188 48.0781 43.3281 47.2969 41.5781C46.5156 39.8281 45.2812 38.4219 43.5938 37.3594C41.9062 36.2969 39.7188 35.7656 37.0312 35.7656H24.5156V93H10.4531V24.75H37.0312C42.375 24.75 46.9531 25.7188 50.7656 27.6562C54.6094 29.5625 57.5469 32.2031 59.5781 35.5781C61.6094 38.9531 62.625 42.8125 62.625 47.1562C62.625 51.5625 61.6094 55.375 59.5781 58.5938C57.5469 61.8125 54.6094 64.2969 50.7656 66.0469C46.9531 67.7969 42.375 68.6719 37.0312 68.6719Z" fill="#FFF200"/>
<path d="M128.391 57.2812V60.5156C128.391 65.7031 127.688 70.3594 126.281 74.4844C124.875 78.6094 122.891 82.125 120.328 85.0312C117.766 87.9062 114.703 90.1094 111.141 91.6406C107.609 93.1719 103.688 93.9375 99.375 93.9375C95.0938 93.9375 91.1719 93.1719 87.6094 91.6406C84.0781 90.1094 81.0156 87.9062 78.4219 85.0312C75.8281 82.125 73.8125 78.6094 72.375 74.4844C70.9688 70.3594 70.2656 65.7031 70.2656 60.5156V57.2812C70.2656 52.0625 70.9688 47.4062 72.375 43.3125C73.7812 39.1875 75.7656 35.6719 78.3281 32.7656C80.9219 29.8594 83.9844 27.6406 87.5156 26.1094C91.0781 24.5781 95 23.8125 99.2812 23.8125C103.594 23.8125 107.516 24.5781 111.047 26.1094C114.609 27.6406 117.672 29.8594 120.234 32.7656C122.828 35.6719 124.828 39.1875 126.234 43.3125C127.672 47.4062 128.391 52.0625 128.391 57.2812ZM114.188 60.5156V57.1875C114.188 53.5625 113.859 50.375 113.203 47.625C112.547 44.875 111.578 42.5625 110.297 40.6875C109.016 38.8125 107.453 37.4062 105.609 36.4688C103.766 35.5 101.656 35.0156 99.2812 35.0156C96.9062 35.0156 94.7969 35.5 92.9531 36.4688C91.1406 37.4062 89.5938 38.8125 88.3125 40.6875C87.0625 42.5625 86.1094 44.875 85.4531 47.625C84.7969 50.375 84.4688 53.5625 84.4688 57.1875V60.5156C84.4688 64.1094 84.7969 67.2969 85.4531 70.0781C86.1094 72.8281 87.0781 75.1562 88.3594 77.0625C89.6406 78.9375 91.2031 80.3594 93.0469 81.3281C94.8906 82.2969 97 82.7812 99.375 82.7812C101.75 82.7812 103.859 82.2969 105.703 81.3281C107.547 80.3594 109.094 78.9375 110.344 77.0625C111.594 75.1562 112.547 72.8281 113.203 70.0781C113.859 67.2969 114.188 64.1094 114.188 60.5156Z" fill="#FFF200"/>
<path d="M194.062 24.75V93H180L152.578 47.25V93H138.516V24.75H152.578L180.047 70.5469V24.75H194.062Z" fill="#FFF200"/>
<path d="M260.391 57.3281V84.375C259.328 85.6562 257.688 87.0469 255.469 88.5469C253.25 90.0156 250.391 91.2812 246.891 92.3438C243.391 93.4062 239.156 93.9375 234.188 93.9375C229.781 93.9375 225.766 93.2188 222.141 91.7812C218.516 90.3125 215.391 88.1719 212.766 85.3594C210.172 82.5469 208.172 79.1094 206.766 75.0469C205.359 70.9531 204.656 66.2812 204.656 61.0312V56.7656C204.656 51.5156 205.328 46.8438 206.672 42.75C208.047 38.6562 210 35.2031 212.531 32.3906C215.062 29.5781 218.078 27.4375 221.578 25.9688C225.078 24.5 228.969 23.7656 233.25 23.7656C239.188 23.7656 244.062 24.7344 247.875 26.6719C251.688 28.5781 254.594 31.2344 256.594 34.6406C258.625 38.0156 259.875 41.8906 260.344 46.2656H246.703C246.359 43.9531 245.703 41.9375 244.734 40.2188C243.766 38.5 242.375 37.1562 240.562 36.1875C238.781 35.2188 236.469 34.7344 233.625 34.7344C231.281 34.7344 229.188 35.2188 227.344 36.1875C225.531 37.125 224 38.5156 222.75 40.3594C221.5 42.2031 220.547 44.4844 219.891 47.2031C219.234 49.9219 218.906 53.0781 218.906 56.6719V61.0312C218.906 64.5938 219.25 67.75 219.938 70.5C220.625 73.2188 221.641 75.5156 222.984 77.3906C224.359 79.2344 226.047 80.625 228.047 81.5625C230.047 82.5 232.375 82.9688 235.031 82.9688C237.25 82.9688 239.094 82.7812 240.562 82.4062C242.062 82.0312 243.266 81.5781 244.172 81.0469C245.109 80.4844 245.828 79.9531 246.328 79.4531V67.3594H233.484V57.3281H260.391Z" fill="#FFF200"/>
<mask id="path-2-outside-1_21_29" maskUnits="userSpaceOnUse" x="7.45312" y="20.7656" width="253" height="73" fill="black">
<rect fill="white" x="7.45312" y="20.7656" width="253" height="73"/>
<path d="M35.0312 66.6719H17.6406V55.7031H35.0312C37.7188 55.7031 39.9062 55.2656 41.5938 54.3906C43.2812 53.4844 44.5156 52.2344 45.2969 50.6406C46.0781 49.0469 46.4688 47.25 46.4688 45.25C46.4688 43.2188 46.0781 41.3281 45.2969 39.5781C44.5156 37.8281 43.2812 36.4219 41.5938 35.3594C39.9062 34.2969 37.7188 33.7656 35.0312 33.7656H22.5156V91H8.45312V22.75H35.0312C40.375 22.75 44.9531 23.7188 48.7656 25.6562C52.6094 27.5625 55.5469 30.2031 57.5781 33.5781C59.6094 36.9531 60.625 40.8125 60.625 45.1562C60.625 49.5625 59.6094 53.375 57.5781 56.5938C55.5469 59.8125 52.6094 62.2969 48.7656 64.0469C44.9531 65.7969 40.375 66.6719 35.0312 66.6719Z"/>
<path d="M126.391 55.2812V58.5156C126.391 63.7031 125.688 68.3594 124.281 72.4844C122.875 76.6094 120.891 80.125 118.328 83.0312C115.766 85.9062 112.703 88.1094 109.141 89.6406C105.609 91.1719 101.688 91.9375 97.375 91.9375C93.0938 91.9375 89.1719 91.1719 85.6094 89.6406C82.0781 88.1094 79.0156 85.9062 76.4219 83.0312C73.8281 80.125 71.8125 76.6094 70.375 72.4844C68.9688 68.3594 68.2656 63.7031 68.2656 58.5156V55.2812C68.2656 50.0625 68.9688 45.4062 70.375 41.3125C71.7812 37.1875 73.7656 33.6719 76.3281 30.7656C78.9219 27.8594 81.9844 25.6406 85.5156 24.1094C89.0781 22.5781 93 21.8125 97.2812 21.8125C101.594 21.8125 105.516 22.5781 109.047 24.1094C112.609 25.6406 115.672 27.8594 118.234 30.7656C120.828 33.6719 122.828 37.1875 124.234 41.3125C125.672 45.4062 126.391 50.0625 126.391 55.2812ZM112.188 58.5156V55.1875C112.188 51.5625 111.859 48.375 111.203 45.625C110.547 42.875 109.578 40.5625 108.297 38.6875C107.016 36.8125 105.453 35.4062 103.609 34.4688C101.766 33.5 99.6562 33.0156 97.2812 33.0156C94.9062 33.0156 92.7969 33.5 90.9531 34.4688C89.1406 35.4062 87.5938 36.8125 86.3125 38.6875C85.0625 40.5625 84.1094 42.875 83.4531 45.625C82.7969 48.375 82.4688 51.5625 82.4688 55.1875V58.5156C82.4688 62.1094 82.7969 65.2969 83.4531 68.0781C84.1094 70.8281 85.0781 73.1562 86.3594 75.0625C87.6406 76.9375 89.2031 78.3594 91.0469 79.3281C92.8906 80.2969 95 80.7812 97.375 80.7812C99.75 80.7812 101.859 80.2969 103.703 79.3281C105.547 78.3594 107.094 76.9375 108.344 75.0625C109.594 73.1562 110.547 70.8281 111.203 68.0781C111.859 65.2969 112.188 62.1094 112.188 58.5156Z"/>
<path d="M192.062 22.75V91H178L150.578 45.25V91H136.516V22.75H150.578L178.047 68.5469V22.75H192.062Z"/>
<path d="M258.391 55.3281V82.375C257.328 83.6562 255.688 85.0469 253.469 86.5469C251.25 88.0156 248.391 89.2812 244.891 90.3438C241.391 91.4062 237.156 91.9375 232.188 91.9375C227.781 91.9375 223.766 91.2188 220.141 89.7812C216.516 88.3125 213.391 86.1719 210.766 83.3594C208.172 80.5469 206.172 77.1094 204.766 73.0469C203.359 68.9531 202.656 64.2812 202.656 59.0312V54.7656C202.656 49.5156 203.328 44.8438 204.672 40.75C206.047 36.6562 208 33.2031 210.531 30.3906C213.062 27.5781 216.078 25.4375 219.578 23.9688C223.078 22.5 226.969 21.7656 231.25 21.7656C237.188 21.7656 242.062 22.7344 245.875 24.6719C249.688 26.5781 252.594 29.2344 254.594 32.6406C256.625 36.0156 257.875 39.8906 258.344 44.2656H244.703C244.359 41.9531 243.703 39.9375 242.734 38.2188C241.766 36.5 240.375 35.1562 238.562 34.1875C236.781 33.2188 234.469 32.7344 231.625 32.7344C229.281 32.7344 227.188 33.2188 225.344 34.1875C223.531 35.125 222 36.5156 220.75 38.3594C219.5 40.2031 218.547 42.4844 217.891 45.2031C217.234 47.9219 216.906 51.0781 216.906 54.6719V59.0312C216.906 62.5938 217.25 65.75 217.938 68.5C218.625 71.2188 219.641 73.5156 220.984 75.3906C222.359 77.2344 224.047 78.625 226.047 79.5625C228.047 80.5 230.375 80.9688 233.031 80.9688C235.25 80.9688 237.094 80.7812 238.562 80.4062C240.062 80.0312 241.266 79.5781 242.172 79.0469C243.109 78.4844 243.828 77.9531 244.328 77.4531V65.3594H231.484V55.3281H258.391Z"/>
</mask>
<path d="M35.0312 66.6719H17.6406V55.7031H35.0312C37.7188 55.7031 39.9062 55.2656 41.5938 54.3906C43.2812 53.4844 44.5156 52.2344 45.2969 50.6406C46.0781 49.0469 46.4688 47.25 46.4688 45.25C46.4688 43.2188 46.0781 41.3281 45.2969 39.5781C44.5156 37.8281 43.2812 36.4219 41.5938 35.3594C39.9062 34.2969 37.7188 33.7656 35.0312 33.7656H22.5156V91H8.45312V22.75H35.0312C40.375 22.75 44.9531 23.7188 48.7656 25.6562C52.6094 27.5625 55.5469 30.2031 57.5781 33.5781C59.6094 36.9531 60.625 40.8125 60.625 45.1562C60.625 49.5625 59.6094 53.375 57.5781 56.5938C55.5469 59.8125 52.6094 62.2969 48.7656 64.0469C44.9531 65.7969 40.375 66.6719 35.0312 66.6719Z" fill="#FFF200"/>
<path d="M126.391 55.2812V58.5156C126.391 63.7031 125.688 68.3594 124.281 72.4844C122.875 76.6094 120.891 80.125 118.328 83.0312C115.766 85.9062 112.703 88.1094 109.141 89.6406C105.609 91.1719 101.688 91.9375 97.375 91.9375C93.0938 91.9375 89.1719 91.1719 85.6094 89.6406C82.0781 88.1094 79.0156 85.9062 76.4219 83.0312C73.8281 80.125 71.8125 76.6094 70.375 72.4844C68.9688 68.3594 68.2656 63.7031 68.2656 58.5156V55.2812C68.2656 50.0625 68.9688 45.4062 70.375 41.3125C71.7812 37.1875 73.7656 33.6719 76.3281 30.7656C78.9219 27.8594 81.9844 25.6406 85.5156 24.1094C89.0781 22.5781 93 21.8125 97.2812 21.8125C101.594 21.8125 105.516 22.5781 109.047 24.1094C112.609 25.6406 115.672 27.8594 118.234 30.7656C120.828 33.6719 122.828 37.1875 124.234 41.3125C125.672 45.4062 126.391 50.0625 126.391 55.2812ZM112.188 58.5156V55.1875C112.188 51.5625 111.859 48.375 111.203 45.625C110.547 42.875 109.578 40.5625 108.297 38.6875C107.016 36.8125 105.453 35.4062 103.609 34.4688C101.766 33.5 99.6562 33.0156 97.2812 33.0156C94.9062 33.0156 92.7969 33.5 90.9531 34.4688C89.1406 35.4062 87.5938 36.8125 86.3125 38.6875C85.0625 40.5625 84.1094 42.875 83.4531 45.625C82.7969 48.375 82.4688 51.5625 82.4688 55.1875V58.5156C82.4688 62.1094 82.7969 65.2969 83.4531 68.0781C84.1094 70.8281 85.0781 73.1562 86.3594 75.0625C87.6406 76.9375 89.2031 78.3594 91.0469 79.3281C92.8906 80.2969 95 80.7812 97.375 80.7812C99.75 80.7812 101.859 80.2969 103.703 79.3281C105.547 78.3594 107.094 76.9375 108.344 75.0625C109.594 73.1562 110.547 70.8281 111.203 68.0781C111.859 65.2969 112.188 62.1094 112.188 58.5156Z" fill="#FFF200"/>
<path d="M192.062 22.75V91H178L150.578 45.25V91H136.516V22.75H150.578L178.047 68.5469V22.75H192.062Z" fill="#FFF200"/>
<path d="M258.391 55.3281V82.375C257.328 83.6562 255.688 85.0469 253.469 86.5469C251.25 88.0156 248.391 89.2812 244.891 90.3438C241.391 91.4062 237.156 91.9375 232.188 91.9375C227.781 91.9375 223.766 91.2188 220.141 89.7812C216.516 88.3125 213.391 86.1719 210.766 83.3594C208.172 80.5469 206.172 77.1094 204.766 73.0469C203.359 68.9531 202.656 64.2812 202.656 59.0312V54.7656C202.656 49.5156 203.328 44.8438 204.672 40.75C206.047 36.6562 208 33.2031 210.531 30.3906C213.062 27.5781 216.078 25.4375 219.578 23.9688C223.078 22.5 226.969 21.7656 231.25 21.7656C237.188 21.7656 242.062 22.7344 245.875 24.6719C249.688 26.5781 252.594 29.2344 254.594 32.6406C256.625 36.0156 257.875 39.8906 258.344 44.2656H244.703C244.359 41.9531 243.703 39.9375 242.734 38.2188C241.766 36.5 240.375 35.1562 238.562 34.1875C236.781 33.2188 234.469 32.7344 231.625 32.7344C229.281 32.7344 227.188 33.2188 225.344 34.1875C223.531 35.125 222 36.5156 220.75 38.3594C219.5 40.2031 218.547 42.4844 217.891 45.2031C217.234 47.9219 216.906 51.0781 216.906 54.6719V59.0312C216.906 62.5938 217.25 65.75 217.938 68.5C218.625 71.2188 219.641 73.5156 220.984 75.3906C222.359 77.2344 224.047 78.625 226.047 79.5625C228.047 80.5 230.375 80.9688 233.031 80.9688C235.25 80.9688 237.094 80.7812 238.562 80.4062C240.062 80.0312 241.266 79.5781 242.172 79.0469C243.109 78.4844 243.828 77.9531 244.328 77.4531V65.3594H231.484V55.3281H258.391Z" fill="#FFF200"/>
<path d="M35.0312 66.6719H17.6406V55.7031H35.0312C37.7188 55.7031 39.9062 55.2656 41.5938 54.3906C43.2812 53.4844 44.5156 52.2344 45.2969 50.6406C46.0781 49.0469 46.4688 47.25 46.4688 45.25C46.4688 43.2188 46.0781 41.3281 45.2969 39.5781C44.5156 37.8281 43.2812 36.4219 41.5938 35.3594C39.9062 34.2969 37.7188 33.7656 35.0312 33.7656H22.5156V91H8.45312V22.75H35.0312C40.375 22.75 44.9531 23.7188 48.7656 25.6562C52.6094 27.5625 55.5469 30.2031 57.5781 33.5781C59.6094 36.9531 60.625 40.8125 60.625 45.1562C60.625 49.5625 59.6094 53.375 57.5781 56.5938C55.5469 59.8125 52.6094 62.2969 48.7656 64.0469C44.9531 65.7969 40.375 66.6719 35.0312 66.6719Z" stroke="#090D12" stroke-width="2" mask="url(#path-2-outside-1_21_29)"/>
<path d="M126.391 55.2812V58.5156C126.391 63.7031 125.688 68.3594 124.281 72.4844C122.875 76.6094 120.891 80.125 118.328 83.0312C115.766 85.9062 112.703 88.1094 109.141 89.6406C105.609 91.1719 101.688 91.9375 97.375 91.9375C93.0938 91.9375 89.1719 91.1719 85.6094 89.6406C82.0781 88.1094 79.0156 85.9062 76.4219 83.0312C73.8281 80.125 71.8125 76.6094 70.375 72.4844C68.9688 68.3594 68.2656 63.7031 68.2656 58.5156V55.2812C68.2656 50.0625 68.9688 45.4062 70.375 41.3125C71.7812 37.1875 73.7656 33.6719 76.3281 30.7656C78.9219 27.8594 81.9844 25.6406 85.5156 24.1094C89.0781 22.5781 93 21.8125 97.2812 21.8125C101.594 21.8125 105.516 22.5781 109.047 24.1094C112.609 25.6406 115.672 27.8594 118.234 30.7656C120.828 33.6719 122.828 37.1875 124.234 41.3125C125.672 45.4062 126.391 50.0625 126.391 55.2812ZM112.188 58.5156V55.1875C112.188 51.5625 111.859 48.375 111.203 45.625C110.547 42.875 109.578 40.5625 108.297 38.6875C107.016 36.8125 105.453 35.4062 103.609 34.4688C101.766 33.5 99.6562 33.0156 97.2812 33.0156C94.9062 33.0156 92.7969 33.5 90.9531 34.4688C89.1406 35.4062 87.5938 36.8125 86.3125 38.6875C85.0625 40.5625 84.1094 42.875 83.4531 45.625C82.7969 48.375 82.4688 51.5625 82.4688 55.1875V58.5156C82.4688 62.1094 82.7969 65.2969 83.4531 68.0781C84.1094 70.8281 85.0781 73.1562 86.3594 75.0625C87.6406 76.9375 89.2031 78.3594 91.0469 79.3281C92.8906 80.2969 95 80.7812 97.375 80.7812C99.75 80.7812 101.859 80.2969 103.703 79.3281C105.547 78.3594 107.094 76.9375 108.344 75.0625C109.594 73.1562 110.547 70.8281 111.203 68.0781C111.859 65.2969 112.188 62.1094 112.188 58.5156Z" stroke="#090D12" stroke-width="2" mask="url(#path-2-outside-1_21_29)"/>
<path d="M192.062 22.75V91H178L150.578 45.25V91H136.516V22.75H150.578L178.047 68.5469V22.75H192.062Z" stroke="#090D12" stroke-width="2" mask="url(#path-2-outside-1_21_29)"/>
<path d="M258.391 55.3281V82.375C257.328 83.6562 255.688 85.0469 253.469 86.5469C251.25 88.0156 248.391 89.2812 244.891 90.3438C241.391 91.4062 237.156 91.9375 232.188 91.9375C227.781 91.9375 223.766 91.2188 220.141 89.7812C216.516 88.3125 213.391 86.1719 210.766 83.3594C208.172 80.5469 206.172 77.1094 204.766 73.0469C203.359 68.9531 202.656 64.2812 202.656 59.0312V54.7656C202.656 49.5156 203.328 44.8438 204.672 40.75C206.047 36.6562 208 33.2031 210.531 30.3906C213.062 27.5781 216.078 25.4375 219.578 23.9688C223.078 22.5 226.969 21.7656 231.25 21.7656C237.188 21.7656 242.062 22.7344 245.875 24.6719C249.688 26.5781 252.594 29.2344 254.594 32.6406C256.625 36.0156 257.875 39.8906 258.344 44.2656H244.703C244.359 41.9531 243.703 39.9375 242.734 38.2188C241.766 36.5 240.375 35.1562 238.562 34.1875C236.781 33.2188 234.469 32.7344 231.625 32.7344C229.281 32.7344 227.188 33.2188 225.344 34.1875C223.531 35.125 222 36.5156 220.75 38.3594C219.5 40.2031 218.547 42.4844 217.891 45.2031C217.234 47.9219 216.906 51.0781 216.906 54.6719V59.0312C216.906 62.5938 217.25 65.75 217.938 68.5C218.625 71.2188 219.641 73.5156 220.984 75.3906C222.359 77.2344 224.047 78.625 226.047 79.5625C228.047 80.5 230.375 80.9688 233.031 80.9688C235.25 80.9688 237.094 80.7812 238.562 80.4062C240.062 80.0312 241.266 79.5781 242.172 79.0469C243.109 78.4844 243.828 77.9531 244.328 77.4531V65.3594H231.484V55.3281H258.391Z" stroke="#090D12" stroke-width="2" mask="url(#path-2-outside-1_21_29)"/>
<mask id="path-3-outside-2_21_29" maskUnits="userSpaceOnUse" x="5.45312" y="18.7656" width="253" height="73" fill="black">
<rect fill="white" x="5.45312" y="18.7656" width="253" height="73"/>
<path d="M33.0312 64.6719H15.6406V53.7031H33.0312C35.7188 53.7031 37.9062 53.2656 39.5938 52.3906C41.2812 51.4844 42.5156 50.2344 43.2969 48.6406C44.0781 47.0469 44.4688 45.25 44.4688 43.25C44.4688 41.2188 44.0781 39.3281 43.2969 37.5781C42.5156 35.8281 41.2812 34.4219 39.5938 33.3594C37.9062 32.2969 35.7188 31.7656 33.0312 31.7656H20.5156V89H6.45312V20.75H33.0312C38.375 20.75 42.9531 21.7188 46.7656 23.6562C50.6094 25.5625 53.5469 28.2031 55.5781 31.5781C57.6094 34.9531 58.625 38.8125 58.625 43.1562C58.625 47.5625 57.6094 51.375 55.5781 54.5938C53.5469 57.8125 50.6094 60.2969 46.7656 62.0469C42.9531 63.7969 38.375 64.6719 33.0312 64.6719Z"/>
<path d="M124.391 53.2812V56.5156C124.391 61.7031 123.688 66.3594 122.281 70.4844C120.875 74.6094 118.891 78.125 116.328 81.0312C113.766 83.9062 110.703 86.1094 107.141 87.6406C103.609 89.1719 99.6875 89.9375 95.375 89.9375C91.0938 89.9375 87.1719 89.1719 83.6094 87.6406C80.0781 86.1094 77.0156 83.9062 74.4219 81.0312C71.8281 78.125 69.8125 74.6094 68.375 70.4844C66.9688 66.3594 66.2656 61.7031 66.2656 56.5156V53.2812C66.2656 48.0625 66.9688 43.4062 68.375 39.3125C69.7812 35.1875 71.7656 31.6719 74.3281 28.7656C76.9219 25.8594 79.9844 23.6406 83.5156 22.1094C87.0781 20.5781 91 19.8125 95.2812 19.8125C99.5938 19.8125 103.516 20.5781 107.047 22.1094C110.609 23.6406 113.672 25.8594 116.234 28.7656C118.828 31.6719 120.828 35.1875 122.234 39.3125C123.672 43.4062 124.391 48.0625 124.391 53.2812ZM110.188 56.5156V53.1875C110.188 49.5625 109.859 46.375 109.203 43.625C108.547 40.875 107.578 38.5625 106.297 36.6875C105.016 34.8125 103.453 33.4062 101.609 32.4688C99.7656 31.5 97.6562 31.0156 95.2812 31.0156C92.9062 31.0156 90.7969 31.5 88.9531 32.4688C87.1406 33.4062 85.5938 34.8125 84.3125 36.6875C83.0625 38.5625 82.1094 40.875 81.4531 43.625C80.7969 46.375 80.4688 49.5625 80.4688 53.1875V56.5156C80.4688 60.1094 80.7969 63.2969 81.4531 66.0781C82.1094 68.8281 83.0781 71.1562 84.3594 73.0625C85.6406 74.9375 87.2031 76.3594 89.0469 77.3281C90.8906 78.2969 93 78.7812 95.375 78.7812C97.75 78.7812 99.8594 78.2969 101.703 77.3281C103.547 76.3594 105.094 74.9375 106.344 73.0625C107.594 71.1562 108.547 68.8281 109.203 66.0781C109.859 63.2969 110.188 60.1094 110.188 56.5156Z"/>
<path d="M190.062 20.75V89H176L148.578 43.25V89H134.516V20.75H148.578L176.047 66.5469V20.75H190.062Z"/>
<path d="M256.391 53.3281V80.375C255.328 81.6562 253.688 83.0469 251.469 84.5469C249.25 86.0156 246.391 87.2812 242.891 88.3438C239.391 89.4062 235.156 89.9375 230.188 89.9375C225.781 89.9375 221.766 89.2188 218.141 87.7812C214.516 86.3125 211.391 84.1719 208.766 81.3594C206.172 78.5469 204.172 75.1094 202.766 71.0469C201.359 66.9531 200.656 62.2812 200.656 57.0312V52.7656C200.656 47.5156 201.328 42.8438 202.672 38.75C204.047 34.6562 206 31.2031 208.531 28.3906C211.062 25.5781 214.078 23.4375 217.578 21.9688C221.078 20.5 224.969 19.7656 229.25 19.7656C235.188 19.7656 240.062 20.7344 243.875 22.6719C247.688 24.5781 250.594 27.2344 252.594 30.6406C254.625 34.0156 255.875 37.8906 256.344 42.2656H242.703C242.359 39.9531 241.703 37.9375 240.734 36.2188C239.766 34.5 238.375 33.1562 236.562 32.1875C234.781 31.2188 232.469 30.7344 229.625 30.7344C227.281 30.7344 225.188 31.2188 223.344 32.1875C221.531 33.125 220 34.5156 218.75 36.3594C217.5 38.2031 216.547 40.4844 215.891 43.2031C215.234 45.9219 214.906 49.0781 214.906 52.6719V57.0312C214.906 60.5938 215.25 63.75 215.938 66.5C216.625 69.2188 217.641 71.5156 218.984 73.3906C220.359 75.2344 222.047 76.625 224.047 77.5625C226.047 78.5 228.375 78.9688 231.031 78.9688C233.25 78.9688 235.094 78.7812 236.562 78.4062C238.062 78.0312 239.266 77.5781 240.172 77.0469C241.109 76.4844 241.828 75.9531 242.328 75.4531V63.3594H229.484V53.3281H256.391Z"/>
</mask>
<path d="M33.0312 64.6719H15.6406V53.7031H33.0312C35.7188 53.7031 37.9062 53.2656 39.5938 52.3906C41.2812 51.4844 42.5156 50.2344 43.2969 48.6406C44.0781 47.0469 44.4688 45.25 44.4688 43.25C44.4688 41.2188 44.0781 39.3281 43.2969 37.5781C42.5156 35.8281 41.2812 34.4219 39.5938 33.3594C37.9062 32.2969 35.7188 31.7656 33.0312 31.7656H20.5156V89H6.45312V20.75H33.0312C38.375 20.75 42.9531 21.7188 46.7656 23.6562C50.6094 25.5625 53.5469 28.2031 55.5781 31.5781C57.6094 34.9531 58.625 38.8125 58.625 43.1562C58.625 47.5625 57.6094 51.375 55.5781 54.5938C53.5469 57.8125 50.6094 60.2969 46.7656 62.0469C42.9531 63.7969 38.375 64.6719 33.0312 64.6719Z" fill="white"/>
<path d="M124.391 53.2812V56.5156C124.391 61.7031 123.688 66.3594 122.281 70.4844C120.875 74.6094 118.891 78.125 116.328 81.0312C113.766 83.9062 110.703 86.1094 107.141 87.6406C103.609 89.1719 99.6875 89.9375 95.375 89.9375C91.0938 89.9375 87.1719 89.1719 83.6094 87.6406C80.0781 86.1094 77.0156 83.9062 74.4219 81.0312C71.8281 78.125 69.8125 74.6094 68.375 70.4844C66.9688 66.3594 66.2656 61.7031 66.2656 56.5156V53.2812C66.2656 48.0625 66.9688 43.4062 68.375 39.3125C69.7812 35.1875 71.7656 31.6719 74.3281 28.7656C76.9219 25.8594 79.9844 23.6406 83.5156 22.1094C87.0781 20.5781 91 19.8125 95.2812 19.8125C99.5938 19.8125 103.516 20.5781 107.047 22.1094C110.609 23.6406 113.672 25.8594 116.234 28.7656C118.828 31.6719 120.828 35.1875 122.234 39.3125C123.672 43.4062 124.391 48.0625 124.391 53.2812ZM110.188 56.5156V53.1875C110.188 49.5625 109.859 46.375 109.203 43.625C108.547 40.875 107.578 38.5625 106.297 36.6875C105.016 34.8125 103.453 33.4062 101.609 32.4688C99.7656 31.5 97.6562 31.0156 95.2812 31.0156C92.9062 31.0156 90.7969 31.5 88.9531 32.4688C87.1406 33.4062 85.5938 34.8125 84.3125 36.6875C83.0625 38.5625 82.1094 40.875 81.4531 43.625C80.7969 46.375 80.4688 49.5625 80.4688 53.1875V56.5156C80.4688 60.1094 80.7969 63.2969 81.4531 66.0781C82.1094 68.8281 83.0781 71.1562 84.3594 73.0625C85.6406 74.9375 87.2031 76.3594 89.0469 77.3281C90.8906 78.2969 93 78.7812 95.375 78.7812C97.75 78.7812 99.8594 78.2969 101.703 77.3281C103.547 76.3594 105.094 74.9375 106.344 73.0625C107.594 71.1562 108.547 68.8281 109.203 66.0781C109.859 63.2969 110.188 60.1094 110.188 56.5156Z" fill="white"/>
<path d="M190.062 20.75V89H176L148.578 43.25V89H134.516V20.75H148.578L176.047 66.5469V20.75H190.062Z" fill="white"/>
<path d="M256.391 53.3281V80.375C255.328 81.6562 253.688 83.0469 251.469 84.5469C249.25 86.0156 246.391 87.2812 242.891 88.3438C239.391 89.4062 235.156 89.9375 230.188 89.9375C225.781 89.9375 221.766 89.2188 218.141 87.7812C214.516 86.3125 211.391 84.1719 208.766 81.3594C206.172 78.5469 204.172 75.1094 202.766 71.0469C201.359 66.9531 200.656 62.2812 200.656 57.0312V52.7656C200.656 47.5156 201.328 42.8438 202.672 38.75C204.047 34.6562 206 31.2031 208.531 28.3906C211.062 25.5781 214.078 23.4375 217.578 21.9688C221.078 20.5 224.969 19.7656 229.25 19.7656C235.188 19.7656 240.062 20.7344 243.875 22.6719C247.688 24.5781 250.594 27.2344 252.594 30.6406C254.625 34.0156 255.875 37.8906 256.344 42.2656H242.703C242.359 39.9531 241.703 37.9375 240.734 36.2188C239.766 34.5 238.375 33.1562 236.562 32.1875C234.781 31.2188 232.469 30.7344 229.625 30.7344C227.281 30.7344 225.188 31.2188 223.344 32.1875C221.531 33.125 220 34.5156 218.75 36.3594C217.5 38.2031 216.547 40.4844 215.891 43.2031C215.234 45.9219 214.906 49.0781 214.906 52.6719V57.0312C214.906 60.5938 215.25 63.75 215.938 66.5C216.625 69.2188 217.641 71.5156 218.984 73.3906C220.359 75.2344 222.047 76.625 224.047 77.5625C226.047 78.5 228.375 78.9688 231.031 78.9688C233.25 78.9688 235.094 78.7812 236.562 78.4062C238.062 78.0312 239.266 77.5781 240.172 77.0469C241.109 76.4844 241.828 75.9531 242.328 75.4531V63.3594H229.484V53.3281H256.391Z" fill="white"/>
<path d="M33.0312 64.6719H15.6406V53.7031H33.0312C35.7188 53.7031 37.9062 53.2656 39.5938 52.3906C41.2812 51.4844 42.5156 50.2344 43.2969 48.6406C44.0781 47.0469 44.4688 45.25 44.4688 43.25C44.4688 41.2188 44.0781 39.3281 43.2969 37.5781C42.5156 35.8281 41.2812 34.4219 39.5938 33.3594C37.9062 32.2969 35.7188 31.7656 33.0312 31.7656H20.5156V89H6.45312V20.75H33.0312C38.375 20.75 42.9531 21.7188 46.7656 23.6562C50.6094 25.5625 53.5469 28.2031 55.5781 31.5781C57.6094 34.9531 58.625 38.8125 58.625 43.1562C58.625 47.5625 57.6094 51.375 55.5781 54.5938C53.5469 57.8125 50.6094 60.2969 46.7656 62.0469C42.9531 63.7969 38.375 64.6719 33.0312 64.6719Z" stroke="#090D12" stroke-width="2" mask="url(#path-3-outside-2_21_29)"/>
<path d="M124.391 53.2812V56.5156C124.391 61.7031 123.688 66.3594 122.281 70.4844C120.875 74.6094 118.891 78.125 116.328 81.0312C113.766 83.9062 110.703 86.1094 107.141 87.6406C103.609 89.1719 99.6875 89.9375 95.375 89.9375C91.0938 89.9375 87.1719 89.1719 83.6094 87.6406C80.0781 86.1094 77.0156 83.9062 74.4219 81.0312C71.8281 78.125 69.8125 74.6094 68.375 70.4844C66.9688 66.3594 66.2656 61.7031 66.2656 56.5156V53.2812C66.2656 48.0625 66.9688 43.4062 68.375 39.3125C69.7812 35.1875 71.7656 31.6719 74.3281 28.7656C76.9219 25.8594 79.9844 23.6406 83.5156 22.1094C87.0781 20.5781 91 19.8125 95.2812 19.8125C99.5938 19.8125 103.516 20.5781 107.047 22.1094C110.609 23.6406 113.672 25.8594 116.234 28.7656C118.828 31.6719 120.828 35.1875 122.234 39.3125C123.672 43.4062 124.391 48.0625 124.391 53.2812ZM110.188 56.5156V53.1875C110.188 49.5625 109.859 46.375 109.203 43.625C108.547 40.875 107.578 38.5625 106.297 36.6875C105.016 34.8125 103.453 33.4062 101.609 32.4688C99.7656 31.5 97.6562 31.0156 95.2812 31.0156C92.9062 31.0156 90.7969 31.5 88.9531 32.4688C87.1406 33.4062 85.5938 34.8125 84.3125 36.6875C83.0625 38.5625 82.1094 40.875 81.4531 43.625C80.7969 46.375 80.4688 49.5625 80.4688 53.1875V56.5156C80.4688 60.1094 80.7969 63.2969 81.4531 66.0781C82.1094 68.8281 83.0781 71.1562 84.3594 73.0625C85.6406 74.9375 87.2031 76.3594 89.0469 77.3281C90.8906 78.2969 93 78.7812 95.375 78.7812C97.75 78.7812 99.8594 78.2969 101.703 77.3281C103.547 76.3594 105.094 74.9375 106.344 73.0625C107.594 71.1562 108.547 68.8281 109.203 66.0781C109.859 63.2969 110.188 60.1094 110.188 56.5156Z" stroke="#090D12" stroke-width="2" mask="url(#path-3-outside-2_21_29)"/>
<path d="M190.062 20.75V89H176L148.578 43.25V89H134.516V20.75H148.578L176.047 66.5469V20.75H190.062Z" stroke="#090D12" stroke-width="2" mask="url(#path-3-outside-2_21_29)"/>
<path d="M256.391 53.3281V80.375C255.328 81.6562 253.688 83.0469 251.469 84.5469C249.25 86.0156 246.391 87.2812 242.891 88.3438C239.391 89.4062 235.156 89.9375 230.188 89.9375C225.781 89.9375 221.766 89.2188 218.141 87.7812C214.516 86.3125 211.391 84.1719 208.766 81.3594C206.172 78.5469 204.172 75.1094 202.766 71.0469C201.359 66.9531 200.656 62.2812 200.656 57.0312V52.7656C200.656 47.5156 201.328 42.8438 202.672 38.75C204.047 34.6562 206 31.2031 208.531 28.3906C211.062 25.5781 214.078 23.4375 217.578 21.9688C221.078 20.5 224.969 19.7656 229.25 19.7656C235.188 19.7656 240.062 20.7344 243.875 22.6719C247.688 24.5781 250.594 27.2344 252.594 30.6406C254.625 34.0156 255.875 37.8906 256.344 42.2656H242.703C242.359 39.9531 241.703 37.9375 240.734 36.2188C239.766 34.5 238.375 33.1562 236.562 32.1875C234.781 31.2188 232.469 30.7344 229.625 30.7344C227.281 30.7344 225.188 31.2188 223.344 32.1875C221.531 33.125 220 34.5156 218.75 36.3594C217.5 38.2031 216.547 40.4844 215.891 43.2031C215.234 45.9219 214.906 49.0781 214.906 52.6719V57.0312C214.906 60.5938 215.25 63.75 215.938 66.5C216.625 69.2188 217.641 71.5156 218.984 73.3906C220.359 75.2344 222.047 76.625 224.047 77.5625C226.047 78.5 228.375 78.9688 231.031 78.9688C233.25 78.9688 235.094 78.7812 236.562 78.4062C238.062 78.0312 239.266 77.5781 240.172 77.0469C241.109 76.4844 241.828 75.9531 242.328 75.4531V63.3594H229.484V53.3281H256.391Z" stroke="#090D12" stroke-width="2" mask="url(#path-3-outside-2_21_29)"/>
</svg>
